<svg width="20" height="20" viewBox="0 0 20 20" fill="none" xmlns="http://www.w3.org/2000/svg">
<g clip-path="url(#clip0)">
<path d="M10.3416 11.5283C10.3054 11.434 10.2624 11.3418 10.2151 11.2523C10.1846 11.1944 10.149 11.1397 10.1139 11.0837C10.0891 11.0437 10.064 11.0042 10.0372 10.9654C9.99674 10.9074 9.95462 10.8519 9.90991 10.7971C9.88413 10.7657 9.85651 10.7359 9.82965 10.7057C9.74527 10.6116 9.6554 10.5244 9.55881 10.4426C9.52417 10.4132 9.49091 10.3818 9.45474 10.3543C9.40912 10.3195 9.36212 10.2893 9.31482 10.2576C9.25913 10.2203 9.20252 10.1852 9.14469 10.1527C9.10516 10.1308 9.06595 10.1091 9.02521 10.0894C8.92191 10.039 8.81708 9.99388 8.7092 9.96061C8.62116 9.93345 8.53388 9.91469 8.4469 9.90019C8.42905 9.89729 8.41119 9.89454 8.39319 9.89241C8.21558 9.86815 8.04208 9.86998 7.87759 9.8979C7.87393 9.89866 7.86981 9.89943 7.866 9.90019C7.64932 9.93895 7.44821 10.02 7.27625 10.1468C7.259 10.1594 7.2471 10.1771 7.23032 10.1901C7.18408 10.2273 7.14182 10.2696 7.10077 10.3132C7.07208 10.3438 7.0408 10.3714 7.01532 10.4046C6.9613 10.4741 6.91309 10.549 6.87173 10.6306C6.87097 10.6322 6.87128 10.6337 6.87051 10.6352C6.76279 10.8497 6.70312 11.0963 6.70312 11.3679C6.70312 12.3756 7.48727 13.4083 8.4884 13.7184C8.67746 13.777 8.86591 13.8057 9.04718 13.8057C9.37265 13.8057 9.67584 13.7128 9.92136 13.5319C10.2908 13.2596 10.4945 12.8256 10.4945 12.3108C10.4945 12.047 10.4385 11.7824 10.3411 11.5288C10.3416 11.5286 10.3416 11.5286 10.3416 11.5283ZM7.6449 10.8209C7.6803 10.7837 7.72089 10.7527 7.76453 10.7258C7.78955 10.7103 7.81686 10.6982 7.84448 10.6863C7.88248 10.6695 7.92169 10.6543 7.96381 10.6442C7.99478 10.637 8.02728 10.634 8.06009 10.6308C8.10861 10.6256 8.15714 10.6207 8.20902 10.6238C8.22275 10.6244 8.23694 10.6256 8.25113 10.6274C8.32758 10.6349 8.40677 10.6486 8.48871 10.674C8.56592 10.6979 8.64099 10.7307 8.71484 10.7673C8.7301 10.7747 8.74506 10.7826 8.76001 10.7904C8.91 10.871 9.051 10.975 9.17642 11.0971C9.18268 11.1033 9.18939 11.1093 9.1958 11.116C9.31711 11.237 9.42224 11.3742 9.50845 11.5198C9.52112 11.5417 9.53378 11.5634 9.54584 11.5858C9.55362 11.6003 9.55911 11.6156 9.56705 11.6302C9.3812 11.8376 9.06824 11.8988 8.70935 11.7888C8.26486 11.6507 7.85669 11.2869 7.62888 10.8366C7.63406 10.8307 7.63971 10.8262 7.6449 10.8209ZM9.47855 12.932C9.28644 13.0737 9.01331 13.0994 8.70935 13.0061C8.23328 12.8584 7.81381 12.4484 7.60004 11.985C7.86539 12.2192 8.16873 12.4017 8.4884 12.5009C8.67716 12.5592 8.86377 12.5876 9.04245 12.5876C9.29498 12.5876 9.53119 12.5285 9.73825 12.4216C9.71552 12.6416 9.62778 12.8223 9.47855 12.932Z" fill="#ED3A4F"/>
<path d="M15.4709 12.6229C15.0658 12.4977 14.6648 12.5517 14.3685 12.7703C14.0847 12.9797 13.9219 13.3241 13.9219 13.7155C13.9219 14.4671 14.5055 15.2365 15.2506 15.467C15.3942 15.5114 15.537 15.5336 15.6756 15.5336C15.9269 15.5336 16.162 15.4611 16.3531 15.3201C16.637 15.1109 16.7997 14.7668 16.7997 14.3754C16.7992 13.6233 16.2157 12.8532 15.4709 12.6229ZM15.9098 14.7195C15.8045 14.797 15.6483 14.8097 15.4706 14.7544C15.0353 14.6199 14.6677 14.1438 14.6677 13.7155C14.6677 13.6065 14.6924 13.4584 14.811 13.3706C14.8733 13.3251 14.9528 13.3016 15.0442 13.3016C15.1081 13.3016 15.1771 13.3128 15.2502 13.3355C15.6855 13.4703 16.0531 13.9463 16.0531 14.3751C16.0531 14.4841 16.0285 14.6321 15.9098 14.7195Z" fill="#ED3A4F"/>
<path d="M5.02417 11.8769C4.61936 11.7515 4.2179 11.8057 3.92172 12.0242C3.63776 12.2335 3.4751 12.5779 3.4751 12.9693C3.4751 13.7211 4.05859 14.4903 4.80368 14.721C4.94742 14.7653 5.09024 14.7874 5.22864 14.7874C5.48011 14.7874 5.71509 14.715 5.90613 14.5739C6.1901 14.3647 6.35276 14.0206 6.35276 13.6292C6.35245 12.8771 5.7688 12.107 5.02417 11.8769ZM5.46286 13.9732C5.35773 14.0508 5.20133 14.063 5.02371 14.0083C4.58838 13.8735 4.22095 13.3976 4.22095 12.9691C4.22095 12.8603 4.24552 12.7122 4.36408 12.6244C4.42648 12.579 4.50598 12.5555 4.59738 12.5555C4.66117 12.5555 4.73014 12.5666 4.80338 12.5893C5.23871 12.7241 5.60614 13.2002 5.60614 13.6288C5.60614 13.7379 5.58158 13.8859 5.46286 13.9732Z" fill="#ED3A4F"/>
<path d="M12.8596 15.2109C12.5573 15.1179 12.2537 15.1587 12.0268 15.3261C11.8086 15.4872 11.6836 15.7492 11.6836 16.0454C11.6836 16.5883 12.1034 17.1431 12.6391 17.3091C12.745 17.3419 12.851 17.3584 12.954 17.3584C13.1451 17.3584 13.3245 17.3028 13.4719 17.1942C13.6901 17.0331 13.8156 16.7708 13.8156 16.4744C13.8146 15.9312 13.3949 15.3766 12.8596 15.2109ZM13.0285 16.5927C12.9957 16.617 12.9312 16.6182 12.8596 16.5962C12.6342 16.5263 12.4298 16.2637 12.4298 16.0451C12.4298 16.0182 12.4339 15.9529 12.4697 15.9268C12.4865 15.9141 12.5121 15.9077 12.5436 15.9077C12.5718 15.9077 12.6043 15.9131 12.6386 15.9234C12.864 15.9932 13.0683 16.2555 13.0683 16.4741C13.0685 16.501 13.0644 16.5658 13.0285 16.5927Z" fill="#ED3A4F"/>
<path d="M12.3722 12.874C12.4781 12.9068 12.5841 12.9233 12.6874 12.9233C12.8782 12.9233 13.0579 12.8676 13.2053 12.7591C13.4237 12.598 13.5487 12.336 13.5487 12.0398C13.5487 11.4969 13.1289 10.9421 12.5931 10.7761C12.2898 10.6824 11.9869 10.7242 11.7606 10.8914C11.5424 11.0526 11.417 11.3149 11.417 11.611C11.4167 12.1532 11.8365 12.7083 12.3722 12.874ZM12.2033 11.492C12.2204 11.4793 12.2462 11.4731 12.277 11.4731C12.3054 11.4731 12.3379 11.4783 12.3722 11.4886C12.5976 11.5584 12.8019 11.8211 12.8019 12.0396C12.8019 12.0667 12.7978 12.1318 12.7621 12.1581C12.73 12.1823 12.6647 12.1829 12.593 12.1614C12.3676 12.0917 12.1633 11.8294 12.1633 11.6107C12.1628 11.5839 12.167 11.5186 12.2033 11.492Z" fill="#ED3A4F"/>
<path d="M4.22098 8.1205C4.22098 7.5396 3.77131 6.94527 3.19712 6.76689C2.87516 6.66649 2.55365 6.71165 2.31485 6.8882C2.0846 7.05788 1.95215 7.33513 1.95215 7.649C1.95215 8.23021 2.40213 8.82454 2.97632 9.00216C3.08939 9.03725 3.202 9.05434 3.31125 9.05434C3.51313 9.05434 3.7034 8.99575 3.85859 8.88131C4.0893 8.71148 4.22098 8.43438 4.22098 8.1205ZM3.41578 8.28026C3.36985 8.31414 3.28714 8.31795 3.19712 8.28957C2.93161 8.20717 2.69831 7.90825 2.69831 7.649C2.69831 7.60521 2.70624 7.52663 2.75736 7.48848C2.78269 7.46986 2.81885 7.46056 2.86142 7.46056C2.89606 7.46056 2.93497 7.46681 2.97632 7.47948C3.24198 7.56203 3.47483 7.86125 3.47483 8.1205C3.47467 8.16414 3.4672 8.24288 3.41578 8.28026Z" fill="#ED3A4F"/>
<path d="M18.4092 13.1961C18.4151 13.1703 18.4264 13.1484 18.4353 13.1244C18.4439 13.1014 18.4499 13.0766 18.4607 13.0557C18.4613 13.0542 18.4629 13.0531 18.4636 13.0518C18.4842 13.0133 18.5096 12.979 18.5382 12.948C18.5759 12.9073 18.6211 12.8752 18.6718 12.8502C18.682 12.845 18.6931 12.8412 18.7035 12.8368C18.752 12.8166 18.8047 12.8029 18.8617 12.7965C18.8695 12.7959 18.8767 12.7936 18.8848 12.7928C18.9325 12.7887 18.983 12.7913 19.0345 12.7974C19.0404 12.798 19.0459 12.7974 19.052 12.798H19.0523C19.0564 12.7985 19.0616 12.8008 19.0662 12.8014C19.1124 12.8088 19.1584 12.8201 19.2092 12.8365C19.2389 12.8462 19.2717 12.8604 19.3042 12.8739C19.3239 12.8821 19.3441 12.8888 19.3639 12.8973C19.3853 12.9071 19.4072 12.9123 19.4295 12.9175C19.4375 12.9193 19.4449 12.9231 19.4527 12.9245C19.4799 12.9294 19.5072 12.9302 19.5343 12.9291C19.5377 12.9291 19.5412 12.9297 19.5446 12.9294C19.5736 12.9276 19.6024 12.9216 19.6303 12.9126C19.6318 12.9123 19.6332 12.9123 19.6351 12.912C19.6534 12.906 19.6701 12.8958 19.6874 12.887C19.6982 12.8813 19.7098 12.878 19.7197 12.8713C19.7959 12.8224 19.8488 12.7478 19.8743 12.6639C19.8844 12.6296 19.8911 12.5945 19.8911 12.558V11.7244C19.8911 10.9215 19.5139 10.1492 18.8814 9.65485L12.3989 3.52278C12.262 3.39324 12.0505 3.38576 11.9057 3.50554C11.789 3.60182 11.6162 3.62166 11.418 3.56001C10.9546 3.41643 10.5632 2.90938 10.5632 2.45268C10.5632 2.35823 10.5815 2.27431 10.6174 2.2035C10.6916 2.0561 10.6603 1.87773 10.5409 1.76436L9.42904 0.713022C9.41927 0.70402 9.40935 0.695475 9.39882 0.687693C8.5306 0.0257648 7.46538 -0.181298 6.67039 0.167214L1.1525 2.82896C0.524903 3.10011 0.119019 3.73595 0.117493 4.45342L0.117188 4.45495V10.3331C0.117188 10.4439 0.166474 10.5487 0.251465 10.62C0.336609 10.6905 0.447694 10.7196 0.557405 10.7002C0.681611 10.6767 0.814058 10.6868 0.949556 10.7289C1.50955 10.9024 1.98273 11.5158 1.98273 12.0691C1.98273 12.2826 1.90918 12.4545 1.77567 12.553C1.62629 12.6631 1.4119 12.6825 1.17005 12.6076C1.02188 12.5617 0.871584 12.478 0.724336 12.3595C0.612031 12.2699 0.45868 12.2513 0.328827 12.314C0.19928 12.376 0.117188 12.5067 0.117188 12.6502V13.457C0.117188 14.2597 0.660859 14.9562 1.42456 15.146L17.7228 19.9471C17.8646 19.9828 18.0079 20 18.1499 20C18.534 20 18.9089 19.8728 19.2205 19.6295C19.6473 19.2964 19.8916 18.7953 19.8916 18.254V15.1424C19.8916 15.0505 19.8584 14.9658 19.8024 14.9007C19.7464 14.8349 19.668 14.7884 19.5775 14.7737C19.5696 14.7727 19.5618 14.7693 19.554 14.7678C19.2234 14.7058 18.8965 14.4727 18.6734 14.1686C18.5668 14.0227 18.488 13.8608 18.44 13.6945C18.4266 13.6473 18.4116 13.6008 18.4037 13.5533C18.3928 13.4866 18.3884 13.4216 18.3895 13.3609C18.3902 13.3287 18.3963 13.3 18.4 13.2701C18.4029 13.2454 18.4037 13.2192 18.4092 13.1961ZM1.46256 3.50722L6.98213 0.844401C7.51604 0.611246 8.27928 0.778025 8.93114 1.2686L9.85277 2.14018C9.82928 2.24028 9.81768 2.34434 9.81768 2.45253C9.81768 3.23332 10.4239 4.03258 11.1981 4.27245C11.5119 4.3698 11.8227 4.36156 12.0876 4.2546L18.0257 9.87229L11.6071 7.96051C11.4432 7.32513 10.9246 6.7453 10.2858 6.54785C9.86773 6.41845 9.45269 6.47399 9.14522 6.69982C8.99416 6.81091 8.8785 6.95602 8.80053 7.12509L1.28311 4.88769C1.0521 4.84328 0.917818 4.68429 0.884706 4.41451C0.882417 4.39772 0.874178 4.38247 0.869295 4.36614C0.899507 3.98513 1.11923 3.65569 1.46256 3.50722ZM10.9197 8.36792C10.9197 8.48617 10.8925 8.64777 10.7619 8.74359C10.647 8.82874 10.4784 8.84247 10.2858 8.78311C10.228 8.76526 10.1709 8.74176 10.1161 8.71307C9.78594 8.54217 9.51876 8.19626 9.44903 7.84973C9.43743 7.79266 9.43148 7.73544 9.43148 7.67914C9.433 7.67105 9.43789 7.63031 9.4385 7.62237C9.43926 7.61352 9.4359 7.60528 9.43636 7.59674C9.4478 7.49252 9.48565 7.37625 9.5888 7.30011C9.65716 7.2496 9.74444 7.22427 9.84438 7.22427C9.91305 7.22427 9.98766 7.23632 10.0656 7.26043C10.4991 7.39486 10.8649 7.84622 10.9111 8.27789C10.9114 8.28125 10.9107 8.2843 10.9107 8.28766L10.9197 8.36792ZM19.1445 18.2541C19.1445 18.5639 19.0047 18.851 18.7603 19.0413C18.5158 19.2328 18.2044 19.298 17.9178 19.2276L1.62003 14.4266C1.17447 14.315 0.863344 13.9165 0.863344 13.4569V13.2909C0.892031 13.3013 0.92087 13.3113 0.949556 13.32C1.41587 13.4648 1.87775 13.4035 2.21802 13.1532C2.54715 12.9106 2.72843 12.5253 2.72843 12.0689C2.72843 11.1885 2.04377 10.2867 1.17005 10.0162C1.06781 9.98444 0.964815 9.96247 0.863039 9.95133V5.53802C0.939485 5.57082 1.02081 5.59539 1.10596 5.61141L8.69677 7.87277C8.69905 7.89078 8.70501 7.90832 8.70806 7.92618C8.71431 7.96539 8.72362 8.00415 8.73262 8.04336C8.74498 8.09707 8.75917 8.14972 8.77672 8.20267C8.78969 8.24249 8.80465 8.2814 8.82067 8.32016C8.84127 8.37051 8.8637 8.4201 8.88857 8.46908C8.9081 8.50784 8.92855 8.54553 8.95052 8.58276C8.9786 8.63022 9.0085 8.67538 9.04009 8.72055C9.06511 8.75626 9.09014 8.79181 9.1173 8.82645C9.15209 8.87009 9.18932 8.91083 9.22747 8.95142C9.25692 8.98316 9.2856 9.0152 9.31688 9.04465C9.35869 9.08447 9.40355 9.12033 9.44872 9.15665C9.48031 9.18228 9.51098 9.20914 9.54409 9.23309C9.59597 9.27002 9.6509 9.3013 9.70614 9.33273C9.73589 9.34982 9.76427 9.36966 9.79525 9.38523C9.88253 9.42932 9.9724 9.46701 10.0653 9.4957C10.159 9.52484 10.2522 9.54117 10.3444 9.5517C10.3694 9.5546 10.3937 9.55567 10.4183 9.5575C10.447 9.55948 10.4766 9.56436 10.5052 9.56436C10.5564 9.56436 10.6059 9.55902 10.6555 9.55353C10.6648 9.55231 10.6746 9.55277 10.6839 9.55124C10.7694 9.53934 10.851 9.51691 10.9297 9.48822C10.9481 9.48136 10.9659 9.47388 10.9839 9.4661C11.0619 9.43299 11.1373 9.39453 11.2055 9.34418C11.2715 9.29535 11.3286 9.23828 11.3808 9.1774C11.3947 9.16168 11.4073 9.14536 11.4203 9.12888C11.4655 9.07028 11.5062 9.00803 11.539 8.94043C11.5419 8.93448 11.5457 8.9296 11.5486 8.92365C11.576 8.86551 11.5991 8.80508 11.617 8.7413L18.3554 10.7471C18.8132 10.8452 19.1452 11.2555 19.1452 11.7238V12.0578C19.03 12.0424 18.9185 12.0406 18.8106 12.0499C18.7181 12.0581 18.6296 12.0764 18.545 12.1014C18.5155 12.11 18.4876 12.1222 18.4592 12.133C18.4002 12.1552 18.3432 12.1805 18.2886 12.2112C18.2622 12.226 18.2364 12.2414 18.2111 12.2582C18.154 12.2962 18.1014 12.339 18.051 12.3865C18.0384 12.3984 18.023 12.4062 18.0108 12.4188C18.0066 12.423 18.0043 12.4286 18.0004 12.433C17.9935 12.4402 17.9857 12.4451 17.979 12.4526C17.9787 12.4529 17.9787 12.4529 17.9783 12.4532C17.9428 12.4924 17.9175 12.5409 17.8868 12.585C17.8623 12.6207 17.8336 12.6535 17.8127 12.692C17.809 12.6987 17.8037 12.7036 17.8003 12.71C17.7701 12.7678 17.7523 12.8316 17.7306 12.8938C17.7198 12.9256 17.7037 12.9547 17.6952 12.9875C17.6732 13.0696 17.663 13.1572 17.6557 13.2457C17.6534 13.2706 17.6467 13.2938 17.6455 13.3193C17.6455 13.3232 17.6439 13.327 17.6439 13.3312C17.6413 13.427 17.6508 13.5274 17.6648 13.6286C17.6671 13.6438 17.6653 13.658 17.6674 13.6733C17.685 13.7796 17.7131 13.8841 17.7477 13.9871C17.7503 13.9945 17.7506 14.0019 17.7533 14.0091C17.7655 14.0448 17.782 14.0819 17.8101 14.1423C17.829 14.187 17.8473 14.2319 17.8693 14.2755C17.8772 14.2923 17.8835 14.3094 17.8925 14.3262C17.9137 14.3662 17.939 14.4034 17.9633 14.4411C17.9847 14.4759 18.0059 14.5102 18.0286 14.5438L18.0283 14.5441C18.0433 14.5691 18.0588 14.5941 18.0742 14.6143C18.135 14.6974 18.2026 14.7754 18.2596 14.8351C18.2674 14.8444 18.2837 14.8642 18.2927 14.8732C18.3185 14.8996 18.3464 14.922 18.373 14.9471C18.3854 14.9585 18.398 14.9701 18.4107 14.9817C18.4729 15.038 18.5372 15.0899 18.6036 15.1384C18.6156 15.147 18.6271 15.156 18.6391 15.1644C18.7088 15.2133 18.7804 15.2574 18.8536 15.2968C18.8648 15.3028 18.8753 15.3099 18.8865 15.3154C18.9714 15.3595 19.058 15.399 19.1462 15.43V18.254H19.1445V18.2541Z" fill="#ED3A4F"/>
</g>
<defs>
<clipPath id="clip0">
<rect width="20" height="20" fill="white"/>
</clipPath>
</defs>
</svg>
