<svg width="16" height="22" viewBox="0 0 16 22" fill="none" xmlns="http://www.w3.org/2000/svg">
<path d="M7.96757 0C3.57423 0 0 3.57423 0 7.96752C0 13.4197 7.13019 21.4239 7.43377 21.762C7.71891 22.0796 8.21674 22.079 8.50137 21.762C8.80494 21.4239 15.9351 13.4197 15.9351 7.96752C15.935 3.57423 12.3609 0 7.96757 0ZM7.96757 20.1837C5.56789 17.3332 1.43481 11.7095 1.43481 7.96761C1.43481 4.36537 4.36537 1.43481 7.96757 1.43481C11.5698 1.43481 14.5003 4.36537 14.5003 7.96757C14.5003 11.7096 10.3678 17.3323 7.96757 20.1837Z" fill="#969696"/>
<path d="M8.00864 3.95898C5.79824 3.95898 4 5.75727 4 7.96767C4 10.1781 5.79828 11.9764 8.00864 11.9764C10.219 11.9764 12.0172 10.1781 12.0172 7.96767C12.0172 5.75727 10.219 3.95898 8.00864 3.95898ZM8.00864 10.5415C6.58938 10.5415 5.43481 9.38693 5.43481 7.96767C5.43481 6.54841 6.58943 5.3938 8.00864 5.3938C9.42785 5.3938 10.5825 6.54841 10.5825 7.96767C10.5825 9.38693 9.42785 10.5415 8.00864 10.5415Z" fill="#969696"/>
</svg>
