<svg width="22" height="15" viewBox="0 0 22 15" fill="none" xmlns="http://www.w3.org/2000/svg">
<path d="M19.9747 4.83745H19.019L17.7952 1.98188C17.3201 0.873281 16.0032 0.00488281 14.797 0.00488281H2.37046C1.06339 0.00488281 0 1.06823 0 2.37521V9.96925C0 11.2008 0.944152 12.2156 2.1465 12.3289C2.43276 13.5215 3.50754 14.4108 4.78672 14.4108C6.06203 14.4108 7.13423 13.5269 7.4244 12.3398H14.5757C14.8659 13.5269 15.9381 14.4108 17.2135 14.4108C18.4926 14.4108 19.5672 13.5215 19.8535 12.3289C21.0558 12.2157 22 11.2008 22 9.96929V7.20786C22 5.9008 21.0914 4.83745 19.9747 4.83745ZM16.6103 2.48964L17.6165 4.83745H15.0963V1.32609C15.7169 1.45289 16.3757 1.94217 16.6103 2.48964ZM1.28906 9.96929V2.37521C1.28906 1.77902 1.77418 1.29395 2.37046 1.29395H10.3556V11.0507H7.4244C7.13423 9.86346 6.06203 8.97955 4.78672 8.97955C3.51914 8.97955 2.45188 9.85259 2.15407 11.0289C1.66113 10.9284 1.28906 10.4915 1.28906 9.96929ZM4.78672 13.1218C4.00065 13.1218 3.3611 12.4827 3.3602 11.6969C3.3602 11.6963 3.36029 11.6958 3.36029 11.6952C3.36029 11.6947 3.3602 11.6941 3.3602 11.6935C3.3611 10.9077 4.00065 10.2686 4.78672 10.2686C5.5733 10.2686 6.21324 10.9085 6.21324 11.6952C6.21328 12.4818 5.5733 13.1218 4.78672 13.1218ZM17.2134 13.1218C16.4268 13.1218 15.7868 12.4818 15.7868 11.6953C15.7868 10.9086 16.4268 10.2687 17.2134 10.2687C18 10.2687 18.6398 10.9086 18.6398 11.6953C18.6398 12.4818 18 13.1218 17.2134 13.1218ZM19.8459 11.0289C19.5481 9.85263 18.4809 8.97959 17.2134 8.97959C15.9381 8.97959 14.8659 9.8635 14.5757 11.0507H11.6446V1.29395H13.8072V5.48198C13.8072 5.83793 14.0958 6.12651 14.4518 6.12651H18.594H19.9747C20.3668 6.12651 20.7109 6.63182 20.7109 7.20786V7.59888H20.3199C19.9639 7.59888 19.6753 7.88746 19.6753 8.24341C19.6753 8.59936 19.9639 8.88794 20.3199 8.88794H20.7109V9.96929C20.7109 10.4915 20.3389 10.9284 19.8459 11.0289Z" fill="#969696"/>
<path d="M7.54846 6.81726H8.2388C8.59475 6.81726 8.88333 6.52868 8.88333 6.17273C8.88333 5.81678 8.59475 5.5282 8.2388 5.5282H7.54846C7.19251 5.5282 6.90393 5.81678 6.90393 6.17273C6.90393 6.52873 7.19251 6.81726 7.54846 6.81726Z" fill="#969696"/>
</svg>
