<svg width="22" height="20" viewBox="0 0 22 20" fill="none" xmlns="http://www.w3.org/2000/svg">
<path d="M15.4554 8.57446V1.61695C15.4554 0.810444 14.7992 0.154297 13.9927 0.154297H1.46266C0.656147 0.154297 0 0.810444 0 1.61695V8.57446C0 9.38097 0.656147 10.0371 1.46266 10.0371H13.9927C14.7992 10.0371 15.4554 9.38097 15.4554 8.57446ZM0.975104 8.57446V1.61695C0.975104 1.34812 1.19382 1.1294 1.46266 1.1294H13.9927C14.2616 1.1294 14.4803 1.34812 14.4803 1.61695V8.57446C14.4803 8.8433 14.2616 9.06202 13.9927 9.06202H1.46266C1.19382 9.06202 0.975104 8.84325 0.975104 8.57446Z" fill="#969696"/>
<path d="M21.8044 11.3868L18.3256 5.3614C17.9087 4.63933 17.2011 4.32179 16.6794 4.62295L16.1868 4.90734C15.9536 5.04195 15.8736 5.34014 16.0083 5.57334C16.1429 5.80648 16.4411 5.88634 16.6743 5.75178L17.124 5.49216C17.1918 5.51736 17.3498 5.62131 17.4812 5.8489L18.9541 8.39997L16.3939 9.87808C16.1607 10.0127 16.0808 10.3109 16.2154 10.5441C16.3057 10.7005 16.4696 10.7879 16.6381 10.7879C16.7208 10.7879 16.8046 10.7668 16.8814 10.7225L19.4416 9.24441L19.8776 9.99948L8.18174 16.7521L7.74577 15.997L15.4411 11.5541C15.6743 11.4194 15.7542 11.1213 15.6196 10.8881C15.4849 10.6549 15.1867 10.5749 14.9536 10.7096L7.25822 15.1526L5.78537 12.6015C5.72077 12.4896 5.7039 12.3584 5.73779 12.2318C5.77167 12.1053 5.85197 12 5.96377 11.9355L6.83147 11.4346C7.06466 11.3 7.14457 11.0018 7.00996 10.7686C6.87525 10.5354 6.57716 10.4555 6.34396 10.5901L5.47622 11.0911C5.13883 11.2858 4.8972 11.6014 4.79584 11.9795C4.69452 12.3577 4.74606 12.7517 4.94084 13.0891L6.65736 16.0622C6.65741 16.0622 6.65741 16.0623 6.65746 16.0624L6.65756 16.0625L7.58083 17.6617C7.58088 17.6618 7.58093 17.6618 7.58093 17.6619C7.58098 17.662 7.58103 17.662 7.58103 17.6621L8.41952 19.1145C8.61434 19.4519 8.92984 19.6935 9.30794 19.7948C9.43465 19.8288 9.56307 19.8456 9.69061 19.8455C9.9437 19.8455 10.1932 19.7794 10.4176 19.6498L21.2689 13.3848C21.9675 12.9815 22.2076 12.0852 21.8044 11.3868ZM21.0075 12.244C20.9736 12.3705 20.8933 12.4758 20.7814 12.5404L9.9301 18.8054C9.81821 18.8699 9.68696 18.8868 9.56044 18.853C9.43392 18.819 9.32866 18.7387 9.26406 18.6269L8.66919 17.5966L20.365 10.844L20.9599 11.8743C21.0245 11.9861 21.0414 12.1175 21.0075 12.244Z" fill="#969696"/>
<path d="M13.0177 7.11176H10.5997C10.3305 7.11176 10.1122 7.33008 10.1122 7.59931C10.1122 7.86853 10.3305 8.08686 10.5997 8.08686H13.0177C13.2869 8.08686 13.5052 7.86853 13.5052 7.59931C13.5052 7.33008 13.2869 7.11176 13.0177 7.11176Z" fill="#969696"/>
<path d="M8.9366 7.11176H6.51868C6.2494 7.11176 6.03113 7.33008 6.03113 7.59931C6.03113 7.86853 6.2494 8.08686 6.51868 8.08686H8.9366C9.20587 8.08686 9.42415 7.86853 9.42415 7.59931C9.42415 7.33008 9.20587 7.11176 8.9366 7.11176Z" fill="#969696"/>
<path d="M4.85579 7.11176H2.43787C2.16859 7.11176 1.95032 7.33008 1.95032 7.59931C1.95032 7.86853 2.16859 8.08686 2.43787 8.08686H4.85579C5.12506 8.08686 5.34334 7.86853 5.34334 7.59931C5.34334 7.33008 5.12506 7.11176 4.85579 7.11176Z" fill="#969696"/>
<path d="M4.51986 2.10443H3.41297C2.60646 2.10443 1.95032 2.76058 1.95032 3.56709V4.67397C1.95032 5.48048 2.60646 6.13663 3.41297 6.13663H4.51986C5.32637 6.13663 5.98252 5.48048 5.98252 4.67397V3.56709C5.98252 2.76058 5.32637 2.10443 4.51986 2.10443ZM5.00741 4.67397C5.00741 4.94281 4.7887 5.16153 4.51986 5.16153H3.41297C3.14414 5.16153 2.92542 4.94281 2.92542 4.67397V3.56709C2.92542 3.29825 3.14414 3.07953 3.41297 3.07953H4.51986C4.7887 3.07953 5.00741 3.29825 5.00741 3.56709V4.67397Z" fill="#969696"/>
</svg>
