<svg width="48" height="38" viewBox="0 0 48 38" fill="none" xmlns="http://www.w3.org/2000/svg">
<path d="M42.7934 12.7474H40.7459L38.1241 5.21492C37.1063 2.29067 34.2849 0 31.7008 0H5.07842C2.27819 0 0 2.8049 0 6.25246V26.2841C0 29.5327 2.02273 32.2095 4.59863 32.5083C5.2119 35.6543 7.51448 38 10.255 38C12.9872 38 15.2842 35.6685 15.9059 32.537H31.2267C31.8484 35.6685 34.1455 38 36.8777 38C39.6181 38 41.9204 35.6543 42.5337 32.5083C45.1096 32.2096 47.1323 29.5327 47.1323 26.2842V19.0001C47.1323 15.5523 45.1858 12.7474 42.7934 12.7474ZM35.5857 6.5543L37.7413 12.7474H32.3421V3.48508C33.6716 3.81955 35.083 5.11019 35.5857 6.5543ZM2.76166 26.2842V6.25246C2.76166 4.67983 3.80097 3.4003 5.07842 3.4003H22.1856V29.1367H15.9059C15.2842 26.005 12.9872 23.6734 10.255 23.6734C7.53933 23.6734 5.25286 25.9763 4.61483 29.0792C3.55877 28.8141 2.76166 27.6616 2.76166 26.2842ZM10.255 34.5998C8.57091 34.5998 7.20075 32.9142 7.19882 30.8412C7.19882 30.8398 7.19901 30.8384 7.19901 30.8368C7.19901 30.8354 7.19882 30.834 7.19882 30.8324C7.20075 28.7595 8.57091 27.0736 10.255 27.0736C11.9401 27.0736 13.3111 28.7617 13.3111 30.8367C13.3112 32.9118 11.9401 34.5998 10.255 34.5998ZM36.8777 34.5998C35.1924 34.5998 33.8214 32.9118 33.8214 30.8369C33.8214 28.762 35.1925 27.0738 36.8777 27.0738C38.5627 27.0738 39.9335 28.762 39.9335 30.8369C39.9336 32.9118 38.5627 34.5998 36.8777 34.5998ZM42.5175 29.0793C41.8794 25.9764 39.5931 23.6735 36.8777 23.6735C34.1455 23.6735 31.8483 26.0051 31.2267 29.1368H24.9472V3.4003H29.5803V14.4475C29.5803 15.3865 30.1986 16.1477 30.9612 16.1477H39.8353H42.7933C43.6335 16.1477 44.3706 17.4806 44.3706 19.0001V20.0315H43.5329C42.7703 20.0315 42.1521 20.7927 42.1521 21.7316C42.1521 22.6706 42.7703 23.4318 43.5329 23.4318H44.3706V26.2842C44.3707 27.6616 43.5736 28.8141 42.5175 29.0793Z" fill="white" fill-opacity="0.5"/>
<path d="M16.1715 17.9701H17.6504C18.413 17.9701 19.0313 17.2089 19.0313 16.27C19.0313 15.331 18.413 14.5698 17.6504 14.5698H16.1715C15.4089 14.5698 14.7906 15.331 14.7906 16.27C14.7906 17.209 15.4089 17.9701 16.1715 17.9701Z" fill="white" fill-opacity="0.5"/>
</svg>
