<svg width="45" height="45" viewBox="0 0 45 45" fill="none" xmlns="http://www.w3.org/2000/svg">
<path d="M41.3869 32.9963L35.8298 27.4367C34.294 25.9002 31.8085 25.9001 30.2726 27.4367L27.7466 29.9639C26.5831 31.1279 24.7002 31.128 23.5366 29.9639C23.5361 29.9634 23.5356 29.9628 23.535 29.9623L14.7504 21.203C13.587 20.039 13.5868 18.1551 14.7504 16.991L17.2763 14.4638C18.8121 12.9273 18.8122 10.4405 17.2763 8.90392L11.7191 3.34406C10.1833 1.80756 7.69777 1.80747 6.16199 3.34406C6.15475 3.35131 4.30965 5.19729 4.30965 5.19729C-1.09504 10.1886 -1.70871 19.5621 4.1422 25.4157L19.3267 40.5779C24.6179 45.8717 33.5635 46.3833 39.5343 40.4097C39.5343 40.4097 39.5347 40.4094 39.5348 40.4093L41.3869 38.5562C42.9191 37.0233 42.9191 34.5292 41.3869 32.9963ZM8.0146 5.19747C8.52524 4.68658 9.35621 4.68649 9.86694 5.19747L15.4242 10.7573C15.936 11.2694 15.936 12.0983 15.4242 12.6105L14.4979 13.5372L7.08838 6.12412L8.0146 5.19747ZM21.1781 38.7239L5.99375 23.5617C1.74577 19.3117 1.50559 12.548 5.2714 8.01281L12.6543 15.3992C10.72 17.5929 10.7881 20.9451 12.8996 23.0578L21.6843 31.8171C23.7836 33.9174 27.1344 34.0054 29.3376 32.061L36.721 39.448C32.2063 43.2083 25.4591 43.0067 21.1781 38.7239ZM39.5347 36.703L38.6085 37.6297L31.1989 30.2166L32.125 29.29C32.637 28.7778 33.4654 28.7778 33.9775 29.29L39.5347 34.8498C40.0454 35.3607 40.0454 36.1921 39.5347 36.703Z" fill="white" fill-opacity="0.5"/>
<path d="M40.7706 0H25.0525C22.8858 0 21.123 1.76361 21.123 3.93137V14.415C21.123 16.5828 22.8858 18.3464 25.0525 18.3464H26.3624V22.2778C26.3624 23.4418 27.7761 24.027 28.5983 23.2044L33.4541 18.3464H40.7705C42.9373 18.3464 44.7001 16.5828 44.7001 14.415V3.93146C44.7001 1.7637 42.9374 0 40.7706 0ZM42.0805 14.4151C42.0805 15.1377 41.4929 15.7256 40.7706 15.7256H32.9116C32.5643 15.7256 32.2311 15.8636 31.9855 16.1094L28.9821 19.1142V17.036C28.9821 16.3123 28.3957 15.7256 27.6723 15.7256H25.0526C24.3304 15.7256 23.7428 15.1377 23.7428 14.4151V3.93146C23.7428 3.20884 24.3304 2.621 25.0526 2.621H40.7707C41.493 2.621 42.0806 3.20884 42.0806 3.93146V14.4151H42.0805Z" fill="white" fill-opacity="0.5"/>
<path d="M38.1509 5.24158H27.6723C26.9489 5.24158 26.3624 5.82829 26.3624 6.55204C26.3624 7.2758 26.9489 7.8625 27.6723 7.8625H38.1509C38.8743 7.8625 39.4607 7.2758 39.4607 6.55204C39.4607 5.82829 38.8743 5.24158 38.1509 5.24158Z" fill="white" fill-opacity="0.5"/>
<path d="M32.9116 10.4835H27.6723C26.9489 10.4835 26.3624 11.0702 26.3624 11.794C26.3624 12.5177 26.9489 13.1044 27.6723 13.1044H32.9116C33.635 13.1044 34.2214 12.5177 34.2214 11.794C34.2214 11.0702 33.6349 10.4835 32.9116 10.4835Z" fill="white" fill-opacity="0.5"/>
</svg>
