<svg width="53" height="48" viewBox="0 0 53 48" fill="none" xmlns="http://www.w3.org/2000/svg">
<path d="M36.8896 20.1102V3.5036C36.8896 1.57858 35.3235 0.0124512 33.3985 0.0124512H3.49113C1.56612 0.0124512 0 1.57858 0 3.5036V20.1102C0 22.0352 1.56612 23.6013 3.49113 23.6013H33.3985C35.3235 23.6013 36.8896 22.0352 36.8896 20.1102ZM2.32742 20.1102V3.5036C2.32742 2.86192 2.84946 2.33988 3.49113 2.33988H33.3985C34.0401 2.33988 34.5622 2.86192 34.5622 3.5036V20.1102C34.5622 20.7518 34.0401 21.2739 33.3985 21.2739H3.49113C2.84946 21.2739 2.32742 20.7517 2.32742 20.1102Z" fill="white" fill-opacity="0.5"/>
<path d="M52.0437 26.8225L43.7405 12.4408C42.7454 10.7174 41.0564 9.95943 39.8111 10.6783L38.6353 11.3571C38.0787 11.6784 37.888 12.3901 38.2094 12.9467C38.5307 13.5032 39.2423 13.6938 39.799 13.3726L40.8723 12.7529C41.0343 12.8131 41.4112 13.0612 41.725 13.6044L45.2404 19.6935L39.1297 23.2215C38.5731 23.5429 38.3823 24.2545 38.7038 24.8111C38.9193 25.1845 39.3104 25.3932 39.7126 25.3932C39.9099 25.3932 40.1101 25.3428 40.2934 25.2371L46.4041 21.709L47.4447 23.5113L19.5286 39.6287L18.488 37.8265L36.8557 27.2219C37.4123 26.9005 37.603 26.1889 37.2816 25.6322C36.9602 25.0756 36.2484 24.8848 35.692 25.2063L17.3243 35.8109L13.8089 29.7219C13.6547 29.4549 13.6144 29.1417 13.6953 28.8396C13.7762 28.5376 13.9678 28.2863 14.2347 28.1323L16.3057 26.9367C16.8623 26.6154 17.053 25.9036 16.7317 25.347C16.4102 24.7904 15.6987 24.5997 15.1421 24.9211L13.0709 26.1167C12.2657 26.5816 11.6889 27.3348 11.447 28.2373C11.2052 29.1399 11.3282 30.0804 11.7931 30.8857L15.8902 37.9821C15.8903 37.9822 15.8903 37.9824 15.8904 37.9825L15.8906 37.9829L18.0943 41.7999C18.0945 41.8001 18.0946 41.8002 18.0946 41.8005C18.0947 41.8006 18.0948 41.8007 18.0948 41.8008L20.0961 45.2674C20.5612 46.0728 21.3142 46.6494 22.2167 46.8914C22.5191 46.9724 22.8256 47.0125 23.1301 47.0124C23.7341 47.0124 24.3296 46.8546 24.8651 46.5453L50.7656 31.5915C52.433 30.629 53.0062 28.4896 52.0437 26.8225ZM50.1416 28.8687C50.0608 29.1706 49.8691 29.4219 49.6021 29.576L23.7017 44.5297C23.4346 44.6838 23.1213 44.724 22.8193 44.6433C22.5174 44.5623 22.2661 44.3707 22.1119 44.1037L20.6921 41.6445L48.6082 25.5271L50.0281 27.9862C50.1822 28.2531 50.2225 28.5666 50.1416 28.8687Z" fill="white" fill-opacity="0.5"/>
<path d="M31.0709 16.619H25.2997C24.657 16.619 24.136 17.1401 24.136 17.7827C24.136 18.4254 24.657 18.9465 25.2997 18.9465H31.0709C31.7136 18.9465 32.2346 18.4254 32.2346 17.7827C32.2346 17.1401 31.7136 16.619 31.0709 16.619Z" fill="white" fill-opacity="0.5"/>
<path d="M21.3305 16.619H15.5593C14.9166 16.619 14.3956 17.1401 14.3956 17.7827C14.3956 18.4254 14.9166 18.9465 15.5593 18.9465H21.3305C21.9732 18.9465 22.4942 18.4254 22.4942 17.7827C22.4942 17.1401 21.9732 16.619 21.3305 16.619Z" fill="white" fill-opacity="0.5"/>
<path d="M11.5897 16.619H5.81849C5.17578 16.619 4.65479 17.1401 4.65479 17.7827C4.65479 18.4254 5.17578 18.9465 5.81849 18.9465H11.5897C12.2324 18.9465 12.7534 18.4254 12.7534 17.7827C12.7534 17.1401 12.2324 16.619 11.5897 16.619Z" fill="white" fill-opacity="0.5"/>
<path d="M10.7879 4.66748H8.14592C6.22091 4.66748 4.65479 6.23361 4.65479 8.15862V10.8006C4.65479 12.7256 6.22091 14.2917 8.14592 14.2917H10.7879C12.7129 14.2917 14.279 12.7256 14.279 10.8006V8.15862C14.279 6.23361 12.7129 4.66748 10.7879 4.66748ZM11.9516 10.8006C11.9516 11.4423 11.4296 11.9643 10.7879 11.9643H8.14592C7.50425 11.9643 6.98221 11.4423 6.98221 10.8006V8.15862C6.98221 7.51695 7.50425 6.99491 8.14592 6.99491H10.7879C11.4296 6.99491 11.9516 7.51695 11.9516 8.15862V10.8006Z" fill="white" fill-opacity="0.5"/>
</svg>
