<svg width="20" height="20" viewBox="0 0 20 20" fill="none" xmlns="http://www.w3.org/2000/svg">
<path d="M9.9996 0C4.48595 0 0 4.486 0 10C0 15.514 4.48595 20 9.9996 20C15.5136 20 20 15.514 20 10C20 4.486 15.5136 0 9.9996 0ZM9.9996 18.6885C5.209 18.6885 1.3115 14.7908 1.3115 10C1.3115 5.20915 5.20895 1.31155 9.9996 1.31155C14.7908 1.31155 18.6884 5.2092 18.6884 10C18.6884 14.7908 14.7908 18.6885 9.9996 18.6885Z" fill="#ED3A4F"/>
<path d="M9.81483 6.29871C10.2976 6.29871 10.6892 5.90711 10.6892 5.42426C10.6892 4.94141 10.2976 4.5498 9.81483 4.5498C9.33163 4.5498 8.94043 4.94141 8.94043 5.42426C8.94043 5.90711 9.33163 6.29871 9.81483 6.29871Z" fill="#ED3A4F"/>
<path d="M11.2046 13.9796H10.6561V7.72855C10.6561 7.3664 10.3626 7.07275 10.0005 7.07275H8.79579C8.43369 7.07275 8.14014 7.3664 8.14014 7.72855C8.14014 8.0907 8.43369 8.3843 8.79579 8.3843H9.34464V13.9796H8.79579C8.43369 13.9796 8.14014 14.2732 8.14014 14.6354C8.14014 14.9975 8.43369 15.2911 8.79579 15.2911H11.2046C11.5669 15.2911 11.8605 14.9975 11.8605 14.6354C11.8605 14.2732 11.5669 13.9796 11.2046 13.9796Z" fill="#ED3A4F"/>
</svg>
