<svg width="20" height="20" viewBox="0 0 20 20" fill="none" xmlns="http://www.w3.org/2000/svg">
<path d="M17.9191 16.4929L17.026 5.23836C16.9703 4.51328 16.3571 3.94527 15.6299 3.94527H13.8657V3.86598C13.8657 1.73426 12.1315 0 9.99974 0C7.86803 0 6.13377 1.73426 6.13377 3.86598V3.94527H4.36963C3.6424 3.94527 3.02916 4.51324 2.97369 5.23684L2.08025 16.4944C2.01111 17.3958 2.32381 18.2932 2.9381 18.9564C3.5524 19.6196 4.42322 20 5.32724 20H14.6722C15.5762 20 16.447 19.6196 17.0614 18.9564C17.6757 18.2931 17.9883 17.3958 17.9191 16.4929ZM7.30525 3.86598C7.30525 2.38023 8.51404 1.17148 9.99974 1.17148C11.4854 1.17148 12.6942 2.38027 12.6942 3.86598V3.94527H7.30525V3.86598ZM16.2019 18.1604C15.8028 18.5912 15.2595 18.8285 14.6722 18.8285H5.32728C4.73994 18.8285 4.19674 18.5912 3.79759 18.1604C3.39849 17.7295 3.20342 17.1696 3.24826 16.5855L4.14162 5.32793C4.15068 5.20949 4.25084 5.11676 4.36963 5.11676H6.13377V6.55953C6.13377 6.88301 6.39603 7.14527 6.71951 7.14527C7.04299 7.14527 7.30525 6.88301 7.30525 6.55953V5.11676H12.6942V6.55953C12.6942 6.88301 12.9565 7.14527 13.28 7.14527C13.6035 7.14527 13.8657 6.88301 13.8657 6.55953V5.11676H15.6299C15.7487 5.11676 15.8488 5.20953 15.858 5.32949L16.7512 16.584C16.7961 17.1696 16.601 17.7294 16.2019 18.1604Z" fill="#ED3A4F"/>
<path d="M12.4494 10.1716C12.2207 9.94281 11.8498 9.94281 11.6211 10.1716L9.00563 12.787L7.99992 11.7813C7.77121 11.5526 7.40031 11.5526 7.17156 11.7813C6.94281 12.0101 6.94281 12.3809 7.17156 12.6097L8.59145 14.0296C8.70582 14.1439 8.85574 14.2012 9.00559 14.2012C9.15543 14.2012 9.30539 14.144 9.41973 14.0296L12.4493 11C12.6781 10.7712 12.6781 10.4003 12.4494 10.1716Z" fill="#ED3A4F"/>
</svg>
