<svg width="20" height="20" viewBox="0 0 20 20" fill="none" xmlns="http://www.w3.org/2000/svg">
<path d="M15.4577 20.0003H4.75002C3.74201 20.0003 2.92219 19.1805 2.92219 18.1732L1.4055 11.0524C0.832431 10.7683 0.456055 10.1887 0.456055 9.54153C0.456055 8.59575 1.22532 7.82715 2.17044 7.82715H17.8301C18.7752 7.82715 19.5445 8.59575 19.5445 9.54153C19.5445 10.0949 19.2774 10.6016 18.8308 10.9206L17.273 18.289C17.2856 19.1805 16.4657 20.0003 15.4577 20.0003ZM2.17044 8.95144C1.84544 8.95144 1.58051 9.21637 1.58051 9.54136C1.58051 9.79762 1.7657 10.0245 2.03146 10.0919C2.23867 10.1446 2.3975 10.3115 2.44137 10.5208L4.03413 18.0576C4.04665 18.5611 4.36213 18.8759 4.75002 18.8759H15.4577C15.8456 18.8759 16.1613 18.5611 16.1613 18.1732L17.7812 10.4506C17.8164 10.2808 17.9284 10.1373 18.0828 10.0612C18.2907 9.96028 18.4204 9.75958 18.4204 9.54153C18.4204 9.21654 18.1554 8.95161 17.8303 8.95161H2.17044V8.95144Z" fill="#ED3A4F"/>
<path d="M6.19352 16.7034C6.19352 16.921 6.01551 17.099 5.79796 17.099H5.68902C5.47147 17.099 5.29346 16.921 5.29346 16.7034V12.0733C5.29346 11.8557 5.47147 11.6777 5.68902 11.6777H5.79796C6.01551 11.6777 6.19352 11.8557 6.19352 12.0733V16.7034Z" fill="#ED3A4F"/>
<path d="M9.08969 16.7034C9.08969 16.921 8.91167 17.099 8.69412 17.099H8.58518C8.36763 17.099 8.18945 16.921 8.18945 16.7034V12.0733C8.18945 11.8557 8.36746 11.6777 8.58518 11.6777H8.69412C8.91167 11.6777 9.08969 11.8557 9.08969 12.0733V16.7034Z" fill="#ED3A4F"/>
<path d="M11.9862 16.7034C11.9862 16.921 11.8082 17.099 11.5906 17.099H11.4815C11.2639 17.099 11.0859 16.921 11.0859 16.7034V12.0733C11.0859 11.8557 11.2639 11.6777 11.4815 11.6777H11.5906C11.8082 11.6777 11.9862 11.8557 11.9862 12.0733V16.7034Z" fill="#ED3A4F"/>
<path d="M14.8823 16.7034C14.8823 16.921 14.7043 17.099 14.4868 17.099H14.3777C14.1601 17.099 13.9819 16.921 13.9819 16.7034V12.0733C13.9819 11.8557 14.1601 11.6777 14.3777 11.6777H14.4866C14.7042 11.6777 14.8822 11.8557 14.8822 12.0733V16.7034H14.8823Z" fill="#ED3A4F"/>
<path d="M4.67556 5.81715C5.05094 3.20304 7.29318 1.19203 10.0109 1.19203C12.7288 1.19203 14.9712 3.2032 15.3466 5.81715C15.4013 6.70971 16.5511 6.5669 16.5511 5.81715C16.1684 2.54254 13.3886 0 10.0111 0C6.63369 0 3.85374 2.54254 3.47119 5.81715C3.47102 6.74558 4.69024 6.78128 4.67556 5.81715Z" fill="#ED3A4F"/>
</svg>
