<svg width="24" height="18" viewBox="0 0 24 18" fill="none" xmlns="http://www.w3.org/2000/svg">
<path d="M23.8309 6.65491C23.7852 6.58627 22.686 4.95309 20.689 3.31927C18.0351 1.14773 15.0306 0 12.0001 0C8.96976 0 5.96515 1.14773 3.31117 3.31918C1.31408 4.95309 0.214768 6.58627 0.16903 6.65491C-0.0563434 6.993 -0.0563434 7.45773 0.16903 7.79582C0.209192 7.85609 1.05945 9.119 2.61444 10.5307L1.48362 13.0749C1.27489 13.5445 1.4441 14.1155 1.86164 14.3503C1.98293 14.4185 2.11182 14.4508 2.23885 14.4508C2.54883 14.4508 2.84725 14.2583 2.99529 13.9251L3.99966 11.6655C4.85986 12.2985 5.7523 12.8276 6.66705 13.2485L5.66673 15.4992C5.458 15.9687 5.62721 16.5398 6.04475 16.7746C6.16604 16.8428 6.29501 16.8751 6.42196 16.8751C6.73194 16.8751 7.03045 16.6825 7.17849 16.3494L8.27998 13.871C9.22543 14.1679 10.1874 14.3528 11.155 14.4208V16.6373C11.155 17.1623 11.5334 17.588 12.0001 17.588C12.4667 17.588 12.8452 17.1623 12.8452 16.6373V14.4208C13.8129 14.3528 14.7747 14.1679 15.7201 13.871L16.8216 16.3494C16.9698 16.6825 17.2681 16.8751 17.5782 16.8751C17.7051 16.8751 17.8342 16.8428 17.9554 16.7746C18.3729 16.5398 18.5421 15.9687 18.3334 15.4992L17.3331 13.2485C18.2479 12.8276 19.1403 12.2985 20.0005 11.6655L21.0048 13.9251C21.1529 14.2583 21.4512 14.4508 21.7613 14.4508C21.8883 14.4508 22.0173 14.4185 22.1386 14.3503C22.556 14.1155 22.7252 13.5445 22.5165 13.0749L21.3858 10.5306C22.9408 9.119 23.7909 7.85609 23.831 7.79582C24.0563 7.45773 24.0563 6.993 23.8309 6.65491ZM19.6498 9.63045C17.2649 11.5673 14.6912 12.5493 12.0001 12.5493C9.30899 12.5493 6.73533 11.5672 4.3502 9.63045C3.22713 8.71854 2.41097 7.79618 1.95174 7.22536C2.41121 6.65418 3.22729 5.73191 4.3502 4.82018C6.73533 2.88336 9.30899 1.90145 12.0001 1.90145C14.6912 1.90145 17.2649 2.88345 19.6498 4.82018C20.7729 5.73209 21.5891 6.65445 22.0483 7.22536C21.5888 7.79645 20.7728 8.71873 19.6498 9.63045Z" fill="#C4C4C4"/>
</svg>
